<?xml version="1.0" standalone="no"?>
<!DOCTYPE svg PUBLIC "-//W3C//DTD SVG 20010904//EN"
 "http://www.w3.org/TR/2001/REC-SVG-20010904/DTD/svg10.dtd">
<svg version="1.0" xmlns="http://www.w3.org/2000/svg"
 width="200.000000pt" height="200.000000pt" viewBox="0 0 200.000000 200.000000"
 preserveAspectRatio="xMidYMid meet">
<metadata>
Created by potrace 1.14, written by Peter Selinger 2001-2017
</metadata>
<g transform="translate(0.000000,200.000000) scale(0.100000,-0.100000)"
fill="#000000" stroke="none">
<path d="M203 935 l0 -455 34 0 33 0 2 400 3 401 121 -208 c67 -114 172 -295
234 -400 l113 -193 43 0 c31 0 51 7 71 24 l28 24 3 431 3 431 -34 0 -34 0 -1
-387 c0 -489 1 -450 -19 -457 -19 -8 -38 13 -71 74 -10 19 -77 136 -149 260
-72 124 -140 241 -151 260 -11 19 -48 83 -82 143 l-63 107 -42 0 -42 0 0 -455z"/>
<path d="M1129 1353 c0 -21 0 -225 -1 -453 l0 -415 31 -3 31 -3 1 58 c0 32 1
213 1 402 0 188 4 339 8 335 7 -8 334 -564 404 -687 63 -111 59 -107 98 -107
54 0 83 15 97 48 11 26 17 462 12 820 -1 40 -2 42 -31 42 -29 0 -30 -2 -31
-42 0 -24 -1 -211 -2 -417 -2 -348 -3 -375 -20 -385 -14 -9 -20 -8 -27 4 -5 8
-116 199 -247 425 l-239 410 -42 3 -42 3 -1 -38z"/>
</g>
</svg>
